<svg id="Capa_1" data-name="Capa 1" xmlns="http://www.w3.org/2000/svg" viewBox="0 0 566.93 566.93"><defs><style>.cls-1{fill:#110c07;}.cls-2{fill:#fefefe;}.cls-3{fill:#050100;}</style></defs><title>01-ALEPH LOGO</title><path class="cls-1" d="M283.27,553C134.74,553.43,13,431.33,14.36,281.18,15.68,133.74,136.77,12.92,286.6,14.41,433.94,15.88,555.06,137.14,553,287.57,551.07,434.18,431,553.8,283.27,553Zm220-162c38.25-76.54,34.27-174.35-21.76-250.77C437.28,79.81,377,47.26,302.16,39.57c0,15.2,0,29.18,0,43.16,0,3.22.2,6.48-.87,9.64-3,8.78-11.58,13.74-21.26,12.22-8.14-1.27-14.52-8.9-14.56-17.69-.07-15.58,0-31.16,0-46.76C197.8,44,115.12,82,69.72,165.63c-40,73.7-40.54,149.11-6.06,225.79,13.56-8.1,26.26-15.77,39-23.29,6.38-3.75,13.11-4.21,19.63-.51s9.53,9.57,9.16,17.22c-.37,7.45-4.43,12.33-10.44,15.94-12.54,7.52-25.11,15-38.44,22.89,49.62,66.62,115.17,103.53,198,104.47,85.33,1,153-35.92,204.23-104.54-13.38-7.92-26.09-15.42-38.78-23-9.81-5.82-13.17-16.86-8-26.08s16.35-12.1,26.34-6.39C477.32,375.54,490.05,383.17,503.31,391Z"/><path class="cls-2" d="M503.31,391c-13.26-7.79-26-15.42-38.86-22.78-10-5.71-21.12-2.88-26.34,6.39s-1.84,20.26,8,26.08c12.69,7.53,25.4,15,38.78,23C433.6,492.22,366,529.1,280.63,528.14c-82.85-.94-148.4-37.85-198-104.47,13.33-7.93,25.9-15.37,38.44-22.89,6-3.61,10.07-8.49,10.44-15.94.37-7.65-2.6-13.49-9.16-17.22s-13.25-3.24-19.63.51c-12.78,7.52-25.48,15.19-39,23.29-34.48-76.68-33.95-152.09,6.06-225.79C115.12,82,197.8,44,265.43,40.14c0,15.6-.05,31.18,0,46.76,0,8.79,6.42,16.42,14.56,17.69,9.68,1.52,18.25-3.44,21.26-12.22,1.07-3.16.85-6.42.87-9.64.05-14,0-28,0-43.16C377,47.26,437.28,79.81,481.55,140.19,537.58,216.61,541.56,314.42,503.31,391ZM166.72,236.76v94.11a21.87,21.87,0,0,0,2.54-1.05c17.33-10.38,34.72-20.65,51.94-31.21,12.27-7.52,25.74-2.5,29,11.12,1.86,7.73-2.74,16.07-11.69,21.32-17.54,10.3-35.08,20.62-53.24,31.3l80.17,46.34c0,25.36-.05,50.33,0,75.29a17.59,17.59,0,0,0,16.36,17.82c10.81.58,18.95-5.79,20.11-15.87a83.65,83.65,0,0,0,.46-9.1c0-22.72,0-45.44,0-68.38l80-46.28c-18.38-10.79-35.92-21.16-53.55-31.41-8.78-5.11-13.47-13.06-11.82-20.61,3-13.84,16.66-19.19,29.36-11.56q24.66,14.84,49.4,29.56c1.4.83,2.66,2.65,5.06,1.56v-92.6c2-1.22,3.87-2.37,5.77-3.49,18.46-10.83,37-21.55,55.38-32.52,10.57-6.31,13.77-17.71,8-27-5.35-8.57-17.06-11.54-25.62-5.91-16.23,10.66-33.39,19.73-50,29.8-4.1,2.5-8.34,4.76-12.42,7.08l-80-46.13c0,21.74,0,42.43,0,63.12,0,12.25-7.47,20.36-18.49,20.29-10.7-.07-18-8.22-18.07-20.09,0-6.49,0-13,0-19.49V158.89l-80,46.15c-20.52-12.14-40.88-24.1-61.15-36.2-9.58-5.72-20.51-4-26.42,4.57-6.67,9.64-3,21.45,8.49,28.14C126.43,213.2,146.47,224.94,166.72,236.76Z"/><path class="cls-3" d="M166.72,236.76c-20.25-11.82-40.29-23.56-60.37-35.21-11.54-6.69-15.16-18.5-8.49-28.14,5.91-8.53,16.84-10.29,26.42-4.57,20.27,12.1,40.63,24.06,61.15,36.2l80-46.15v43.87c0,6.5,0,13,0,19.49,0,11.87,7.37,20,18.07,20.09,11,.07,18.47-8,18.49-20.29.05-20.69,0-41.38,0-63.12l80,46.13c4.08-2.32,8.32-4.58,12.42-7.08,16.57-10.07,33.73-19.14,50-29.8,8.56-5.63,20.27-2.66,25.62,5.91,5.79,9.3,2.59,20.7-8,27-18.39,11-36.92,21.69-55.38,32.52-1.9,1.12-3.76,2.27-5.77,3.49v92.6c-2.4,1.09-3.66-.73-5.06-1.56q-24.75-14.68-49.4-29.56c-12.7-7.63-26.32-2.28-29.36,11.56-1.65,7.55,3,15.5,11.82,20.61,17.63,10.25,35.17,20.62,53.55,31.41l-80,46.28c0,22.94,0,45.66,0,68.38a83.65,83.65,0,0,1-.46,9.1c-1.16,10.08-9.3,16.45-20.11,15.87A17.59,17.59,0,0,1,265.46,484c-.07-25,0-49.93,0-75.29l-80.17-46.34c18.16-10.68,35.7-21,53.24-31.3,9-5.25,13.55-13.59,11.69-21.32-3.26-13.62-16.73-18.64-29-11.12-17.22,10.56-34.61,20.83-51.94,31.21a21.87,21.87,0,0,1-2.54,1.05Z"/></svg>