<svg id="Capa_1" data-name="Capa 1" xmlns="http://www.w3.org/2000/svg" viewBox="0 0 566.93 566.93"><defs><style>.cls-1{fill:#77b8a1;}.cls-2{fill:#efebd8;}.cls-3,.cls-6{fill:#e44523;}.cls-3{stroke:#e54424;stroke-width:7px;}.cls-3,.cls-7{stroke-miterlimit:10;}.cls-4,.cls-7{fill:#4c565e;}.cls-5{fill:#e66723;}.cls-7{stroke:#4d575f;stroke-width:4px;}</style></defs><title>56-NA2</title><circle class="cls-1" cx="283.46" cy="283.46" r="279.38"/><circle class="cls-2" cx="283.46" cy="283.46" r="251.91"/><path class="cls-3" d="M283.47,447.77c-90.6,0-164.31-73.71-164.31-164.3s73.71-164.31,164.31-164.31,164.3,73.71,164.3,164.31S374.06,447.77,283.47,447.77Zm0-325.47c-88.87,0-161.17,72.3-161.17,161.17s72.3,161.16,161.17,161.16,161.16-72.3,161.16-161.16S372.33,122.3,283.47,122.3Z"/><path class="cls-4" d="M283.47,543.92C139.85,543.92,23,427.08,23,283.47S139.85,23,283.47,23,543.92,139.85,543.92,283.47,427.08,543.92,283.47,543.92Zm0-511.5c-138.43,0-251,112.62-251,251.05s112.62,251,251.05,251,251-112.62,251-251S421.89,32.42,283.47,32.42Z"/><circle class="cls-5" cx="75.92" cy="277.48" r="9.41"/><circle class="cls-5" cx="491.01" cy="277.48" r="9.41"/><path class="cls-6" d="M404.05,239.77a3.13,3.13,0,0,1-.25-.48s.16-.12.25-.19Z"/><path class="cls-6" d="M251.55,210.36l-.79-1.29-1.35-2.74,31.81-55.11.78.16v110.3l-1-.19-.16.2.15-.2c-2.4-4.25-4.74-8.52-7.19-12.74q-10.15-17.52-20.38-35l-.74-1.31A3,3,0,0,0,251.55,210.36Z"/><path class="cls-6" d="M284.74,261.68q0-53.15.07-106.28c0-1.3,0-2.6,0-4.06,1.31.18,1.44,1.21,1.82,1.88,9.57,16.48,19,33,28.75,49.41,1.78,3,1.48,5.2-.18,7.74a13.49,13.49,0,0,0-2.57,4.51l-.57.94c-.44.63-.93,1.23-1.31,1.88-7.7,13.41-15.37,26.83-23.12,40.21C286.85,259.26,286.55,261.09,284.74,261.68Z"/><path class="cls-6" d="M318.06,288.51q18-10.29,36.08-20.59,23.81-13.64,47.59-27.3l.54.71a3.47,3.47,0,0,1,.06.45c-9.91,17-19.88,34.07-29.69,51.18a4.83,4.83,0,0,1-4.88,2.87c-20.43-.09-40.87-.05-62.12-.05l5.08-2.94.57-.42,1.42-.77.77-.5a.49.49,0,0,0,.56-.23l.71-.48A9,9,0,0,0,318.06,288.51Z"/><path class="cls-6" d="M260,295.77c-20,0-40.06-.08-60.09.09-3,0-5-.68-6.19-3.43l-.4-.61q-14.21-24.66-28.4-49.34l-1-1.74c1.49-.7,2.27.75,3.4.87l1.36.78,0,0,.6.47.64.24.7.49,1.33.72a18.12,18.12,0,0,0,1.61,1.15c23.09,13.31,46.21,26.55,69.25,40C248.65,288.78,254.74,291.61,260,295.77Z"/><path class="cls-6" d="M233.13,359.13l2.34-4.43c4.14-7,8.34-14,12.39-21.11,5.42-9.46,10.73-19,16.09-28.49.24-.53.42-1.65,1.17-.71.45.56.21,1.7.22,2.59q.07,53.32.14,106.64c0,.39.21.88-.57,1.22q-15.26-26.19-30.52-52.41l-.39-.55-.78-1.44Z"/><path class="cls-6" d="M316,328.43l.28.69.41.58a83.35,83.35,0,0,0,5.84,10.17l0,.25.22.13c1.16,2.06,2.31,4.13,3.47,6.2l.49.72,3,5.29.4.56,0,.07a3,3,0,0,0,1.21,2.17c.61,1.08,1.22,2.16,1.84,3.24a.39.39,0,0,0,.27.51v.08l-.09,1.34-29.1,50.3-2.89,5V304.35l.73-.16,0,.17.18,0,.46.65,4.87,8.74.47.65.36.71.35.52,0,.08a3.26,3.26,0,0,0,1.22,2.14l.72,1.22a23.48,23.48,0,0,0,3.35,5.91l.78,1.44.48.75a.55.55,0,0,0,.23.58Z"/><path class="cls-6" d="M174.13,349.15l-9.13,5-.69-.72q15.52-26.9,31.06-53.77a4.12,4.12,0,0,1,.67-.72c7.44,0,14.88.09,22.33.07q20.15,0,40.31-.15c2.43.5.07,1,0,1.55C248.88,306,239,311.5,229.27,317.14Q201.67,333.1,174.13,349.15Z"/><path class="cls-6" d="M308.05,300.4l-1.37-1.29c1.44,0,2.87-.1,4.31-.1l59.71-.1q11.24,19.2,22.48,38.4c2.68,4.59,5.38,9.17,8,13.82.52.93,1.94,2,.25,3.24a13.14,13.14,0,0,0-1.5-1.2q-28.32-16.37-56.66-32.71C331.53,313.73,319.78,307.08,308.05,300.4Z"/><path class="cls-6" d="M326.56,340.28l-.67-1.17-.5-.71-.28-.63-.42-.62-2.29-4.06-.36-.51a.34.34,0,0,0-.15-.43,35.37,35.37,0,0,0-3.85-6.38h0a3.12,3.12,0,0,0-1.27-2.15l-.7-1.24a14.35,14.35,0,0,0-2.67-4.62l-3.91-6.7a1.45,1.45,0,0,0-.76-1.32v0a1.33,1.33,0,0,0-.73-1.25l-2.29-4.09-.39-.51-.65-1.58.68-.12.63.25c.91.6,1.78,1.26,2.72,1.8q24.84,14.36,49.69,28.68,20.12,11.56,40.29,23l2,1.13c-.46,1.73-1.8.82-2.73.83-11.09.05-22.18,0-33.27.05-8.43-.06-16.85-.15-25.28-.17-1.51,0-2.89,0-3.58-1.63a2.88,2.88,0,0,0-1.12-1.76l-.3-.66-.42-.6-2.29-4.08-.39-.54-3.51-6.11-.45-.67h0A1.9,1.9,0,0,0,326.56,340.28Z"/><path class="cls-6" d="M259.42,303.26l1.93-.79.1,1.31a.33.33,0,0,0-.2.43L233,352.51l-.27.67-.42.59-1.6,2.87a.33.33,0,0,0-.29.44c-1,1.11-2.26.69-3.44.71-7.65.09-15.3.13-22.95.19H165.48l1.81-1.56,2.08-1.27a1.32,1.32,0,0,0,1.31-.71,23.32,23.32,0,0,0,5.42-3.15,16.29,16.29,0,0,0,1.81-.8q18.84-10.85,37.67-21.72Q237.51,316.05,259.42,303.26Z"/><path class="cls-6" d="M204,221.32l-.59-.26-.75-.47-.62-.3a3.49,3.49,0,0,0-2.06-1.18l-3.4-2-.58-.4-.68-.29-.66-.45c-3.68-2.14-7.36-4.27-11-6.43-.63-.38-2-.84-.21-1.6,12.18.62,24.36.42,36.55.27,7.1.06,14.21.32,21.3.11,3.54-.11,6.26.42,7.5,4.1l.52.73.31.62.41.58,0,0c8.81,15.8,18.07,31.33,27.35,46.86l.74,1.82-.14.69c-3.46-1-5.82-3.95-9.15-5.2-7.94-4.62-15.85-9.27-23.82-13.83q-20.16-11.52-40.37-23h0Z"/><path class="cls-6" d="M289.37,263.21l-.66-.12c2-4.44,4.71-8.43,7.11-12.62q9.1-15.91,18.31-31.77l.57-.95a1.38,1.38,0,0,0,.75-1.25l0,0,.52-.78,0-.11a.3.3,0,0,0,.22-.45,8.42,8.42,0,0,0,1.89-3.28l.51-.83.05-.11a.41.41,0,0,0,.32-.49,4,4,0,0,1,4-2.12c7.92.07,15.84-.07,23.76-.13,11.58,0,23.17,0,34.75.07.88,0,2.28-1,2.63.83l-1.37.75a.55.55,0,0,0-.71.48l-.63.27a6.47,6.47,0,0,0-2.88,1.73l-1.15.7c-1.47.75-3,1.43-4.4,2.24Z"/><path class="cls-6" d="M400,237.19c-.33,1.3-1.61,1.43-2.52,1.95q-42.37,24.33-84.79,48.61a5.33,5.33,0,0,0-.73.62h0a8.3,8.3,0,0,0-3.45,2l-1.84.92-.67.48c-.48-.06-1.09.14-1.21-.62a3.52,3.52,0,0,0,1.36-2c7.23-9.45,15.13-18.24,24.57-25.58a128.23,128.23,0,0,1,63.62-26.37A44.2,44.2,0,0,1,400,237.19Z"/><path class="cls-6" d="M186,214.17l2.8,1.56.52.35.7.35c.09.35.25.59.66.51l2.79,1.46.53.41,4.08,2.28a1.39,1.39,0,0,0,1.24.73l0,0a.58.58,0,0,0,.72.5.47.47,0,0,0,.51.21,3.37,3.37,0,0,0,2.15,1.26,4.82,4.82,0,0,0,2.54,1.4c7.67,4.54,15.31,9.16,23,13.63,13,7.51,26,14.94,39,22.41l0,0,.8.5.09,0a.36.36,0,0,0,.49.27,3.19,3.19,0,0,0,2,1.14l.75.49a5.72,5.72,0,0,0,2.63,1.49l.7.46a.46.46,0,0,0,.54.24l.8.52.54.71-1.23.22c-38.83-4-70-21.39-93.17-53-1.3-1.77-1.27-1.79-.15-2.53l.66.5,2.74,1.49Z"/><path class="cls-6" d="M166.1,236.47c9.35,1.11,18.67,2.42,27.7,5.27,28.12,8.87,50.89,25.06,67.78,49.35-.89,1.35-1.55,0-2.12-.3-16.13-9.18-32.22-18.43-48.35-27.62-12.57-7.17-25.17-14.27-37.76-21.4l-3.41-2a4.29,4.29,0,0,0-2.55-1.43,1.18,1.18,0,0,0-1.14-.69Z"/><path class="cls-6" d="M386,211.78c-6.16,10-14.21,18.34-23.14,25.81A128.57,128.57,0,0,1,301.35,266l-1.41.35-2.58.25a2.5,2.5,0,0,0-2.18.39l-5.08,0a.61.61,0,0,0,.15-.44l1.17-.64c.5-.23,1-.43,1.48-.7q23.4-13.54,46.79-27.1,18.92-11,37.77-22.08l3.26-1.85.57-.43.83-.45C383.57,213.17,384.45,211.6,386,211.78Z"/><path class="cls-6" d="M298.06,414.64c-17-36.65-17.83-73.33,0-110Z"/><path class="cls-6" d="M268.79,304.65c17.26,36.62,16.64,73.31,0,110.07Z"/><path class="cls-6" d="M164,354.83l-.13-1.09a4.46,4.46,0,0,1,.43-.33l.69.72Z"/><path class="cls-6" d="M401.73,240.62h.83c-.1.23-.19.47-.29.7Z"/><path class="cls-4" d="M70.33,365.76,76,363.67,82.19,355l-13.92,5.17-4.48-12.05,35.8-13.28,3.34,9L93.5,357.1l12.61-4.68,4.49,12.1L74.81,377.81Z"/><path class="cls-4" d="M84.46,381l20-11.55,8.67-.54,11,19.07-4.71,7.59L99,407.41l-7.75-.13L80.08,388.07Zm10,9.09,2.22,3.84L110,386.14l-2.22-3.83Z"/><path class="cls-4" d="M127,392.59l16.47,20L140,420.87l-23.38,19.25-8.17-9.92,20.76-17.09-2.82-3.42-20.76,17.09-8.17-9.92Z"/><path class="cls-4" d="M130.7,434.84l7.65-8.22,13.09,12.17L143.79,447Z"/><path class="cls-4" d="M183.27,445.43l-13.88,36.79-11.13-7.65,1.17-3.52-6.4-4.4L150.16,469,139,461.36l20.73-18.44-2.45-1.69,6.36-9.25Zm-23,14.6,2.76,1.89,3.18-7.58Z"/><path class="cls-4" d="M177.93,478.12l13-27.9,11.65,5.42L191.25,480l12.58,5.86-4.78,10.28-20.76-9.66Z"/><path class="cls-4" d="M217.2,502.11,205,498.05l12.06-36.22,12.19,4.05Z"/><path class="cls-4" d="M242.5,496.53l1.77-8.79,12.6,2.55L254.29,503,249,509.47l-21.81-4.4-2.6-7.3,4.92-24.4,5.24-5.72,21.86,4.41-2.26,11.17-13.18-2.66-3,15.08Z"/><path class="cls-4" d="M261.6,473l25.9.93,3.93,8-1.09,30.27-12.84-.46,1-26.87L274,484.7l-1,26.87-12.84-.46Z"/><path class="cls-4" d="M296.71,504.41l-2.79-23.21,2.93-7.81,22.68-2.72,1.35,11.26-13.73,1.65.33,2.73,8.8-1.05,1.18,9.92-8.79,1.05L309,499l13.73-1.65,1.35,11.26L301.4,511.3Z"/><path class="cls-4" d="M320.81,470.61,347,463.1l6.22,6.42,6.51,22.74-2,7.49-26.43,7.56Zm19.75,22.27,4.25-1.22-4.28-15-4.26,1.21Z"/><path class="cls-4" d="M392.13,439.78l28.28,27.3L409,474.28l-2.77-2.48L399.64,476l1,3.56-11.43,7.19-8.73-26.34L378,461.94l-6-9.51Zm4.29,26.9,2.84-1.79L393.55,459Z"/><path class="cls-4" d="M425.85,462.58l-25.69-28.24,19.18-17.44,8.42,3L436,429l1.23,7.85,3.24-2.94,7.63,8.39L438.55,451,429,447l6.36,7Zm-5.79-25.46,3.28-3-2.8-3.08-3.28,3Z"/><path class="cls-4" d="M450.48,396.52l21.68,15.74-7.55,10.4-21.68-15.74-2.63,3.63L462,426.28l-7.55,10.4-30.89-22.43L449.1,379l7.72.67,25.52,18.53-7.55,10.4-21.67-15.74Z"/><path class="cls-4" d="M490.74,379.54,485,391.05l-34.18-17,5.73-11.51Z"/><path class="cls-4" d="M486.61,371.42l-22-8L459,357.34l7.78-21.48,10.66,3.86-4.7,13,2.59.94,3-8.33,9.4,3.4-3,8.33,2.59.94L492,345l10.66,3.86-7.78,21.48Z"/><path class="cls-4" d="M483.5,324.69l1.94-9.58,6.4-2.73,10.74,2.18,6.49,5.22-4.51,22.28-11.12-2.25,2.73-13.44-2.7-.55-1.81,8.95-6.53,3.36L474.39,336l-6.49-5.22,4.56-22.5,11.11,2.26-2.76,13.65Z"/><path class="cls-4" d="M213.69,122.36l-3.71-8.8-14.2-9.32L205,126,186.1,134,162.49,78l14.11-6,21.71,14.09L190,66.36l18.94-8,23.61,56Z"/><path class="cls-4" d="M299.33,48.88l14.18,61-21.5-.28-1.56-5.69-12.38-.16-1.71,5.65-21.5-.28L266,66.34l-4.73-.06.23-17.89ZM281.79,88.56l5.33.07-2.5-12.85Z"/><path class="cls-7" d="M366.86,83.8l-14.39-6.19q4.5-10,9.83-12.82Q369,61.22,380.19,66q10.67,4.59,13.18,11.25,2,5.37-1.19,12.81a25.44,25.44,0,0,1-14.75,14.24l-12.9,4.93c-1.49.6-2.53,1-3.11,1.31a9,9,0,0,0-2.75,1.85l20.17,8.68-5,11.57-38.52-16.57q5.79-13.47,18.4-18.63l14.73-6a14.54,14.54,0,0,0,8.26-7.82q2.81-6.52-1.16-8.23-4.31-1.84-7.64,5.92Z"/></svg>