<?xml version="1.0" encoding="utf-8"?>
<!-- Generator: Adobe Illustrator 19.2.1, SVG Export Plug-In . SVG Version: 6.00 Build 0)  -->
<svg version="1.1" id="Capa_1" xmlns="http://www.w3.org/2000/svg" xmlns:xlink="http://www.w3.org/1999/xlink" x="0px" y="0px"
	 viewBox="0 0 141.7 141.7" style="enable-background:new 0 0 141.7 141.7;" xml:space="preserve">
<style type="text/css">
	.st0{fill:#E30A14;}
	.st1{fill:#090808;}
	.st2{fill:#FFFFFF;stroke:#000000;stroke-width:0.6196;stroke-miterlimit:10;}
</style>
<g>
	<path class="st0" d="M127.6,70.9c0-31.3-25.4-56.7-56.7-56.7S14.2,39.6,14.2,70.9"/>
	<path class="st1" d="M14.2,70.9c0,31.3,25.4,56.7,56.7,56.7s56.7-25.4,56.7-56.7"/>
	<path class="st2" d="M70.8,115c-0.9,0-1,0-1.2-1c-1.1-5.5-2.2-11-3.3-16.4c-1-4.9-1.9-9.8-2.9-14.7c-0.7-3.7-1.5-7.5-2.2-11.2
		c0-0.2-0.2-0.4-0.3-0.6c-1.9-1.9-3.8-3.7-5.8-5.6c-4.3-4.2-8.7-8.5-13-12.7c-3-2.9-5.9-5.8-8.9-8.6c-1.2-1.2-2.5-2.4-3.7-3.6
		c-0.2-0.2-0.2-0.3-0.1-0.6c0.2-0.3,0.5-0.6,0.6-1c0.1-0.3,0.3-0.3,0.6-0.2c4.5,1.8,9,3.6,13.5,5.4c8.7,3.5,17.5,7,26.2,10.5
		c0.3,0.1,0.5,0.1,0.7,0c8.8-3.5,17.6-7,26.3-10.5c4.5-1.8,8.9-3.6,13.4-5.3c0.2-0.1,0.4-0.1,0.5,0.2c0.1,0.2,0.2,0.3,0.3,0.4
		c0.2,0.3,0.6,0.6,0.5,0.9c0,0.3-0.5,0.5-0.7,0.8c-2.8,2.7-5.6,5.4-8.3,8.1c-4.8,4.6-9.5,9.3-14.3,13.9c-2.5,2.4-4.9,4.8-7.4,7.2
		c-0.8,0.7-1.1,1.5-1.3,2.5c-0.8,4.5-1.8,8.9-2.6,13.4c-1.4,6.9-2.7,13.8-4.1,20.8c-0.5,2.6-1,5.2-1.5,7.7c-0.1,0.3-0.2,0.5-0.5,0.4
		C71.2,115,71,115,70.8,115z"/>
</g>
</svg>
