<svg id="Capa_1" data-name="Capa 1" xmlns="http://www.w3.org/2000/svg" viewBox="0 0 566.93 566.93"><defs><style>.cls-1{fill:#b0cb12;}.cls-2{fill:#fefefd;}</style></defs><title>01-Yu Jing</title><g id="_Grupo_" data-name="&lt;Grupo&gt;"><path class="cls-1" d="M410.65,342.59c7.7,4.07,11.73,13.57,9.5,22.2-1.8,7.08-12.36,14.88-19.88,14.64a4.85,4.85,0,0,1-3.2-1.12c-13.91-11.34-29.46-20.65-41.78-34-3.05-3.25-6-6.64-7.8-10.76-3.49-7.95.58-12.8,11.68-12.32,8.48.68,17.55,4,26.22,8.24C393.88,333.72,402.26,338.18,410.65,342.59Z"/><path class="cls-1" d="M445.3,393.24c18.23-.29,23.56,8.48,22.3,23a48.05,48.05,0,0,1-.73,6.89c-1.6,6.44-5.82,10.27-12.41,11.39a39.5,39.5,0,0,1-6.35.48q-163.65,0-327.35,0c-7.86.05-15-1.79-17.55-9.55-3-8.82-3.88-18.42,2.23-26.66,3.3-4.46,8.48-5.42,14.06-5.42,43.18.14,86.41-.05,129.65.19,5.52.05,7.17-1.21,7.08-6.93q-.45-41.29,0-82.59c.05-5.82-1.79-7-7.22-6.88-27.92.24-55.83.09-83.7.09-8.39,0-12.85-3.88-14-12.16a64.9,64.9,0,0,1-.15-16.24c1-9,5.43-12.89,14.54-12.94,28.12,0,56.23-.1,84.29.1,4.8,0,6.25-1.17,6.21-6.11q-.38-40.71,0-81.38c0-4.41-1.22-5.53-5.53-5.48-43.43.15-86.86.1-130.24.1-12.94,0-18.9-6-18.9-18.81,0-5.76-.87-11.73,3.3-16.67,3.92-4.6,8.82-6.3,14.88-6.3q82.59.23,165.18.1,81.93,0,164,0c12.84,0,18.71,5.86,18.71,18.9,0,5,.68,10.13-2.14,14.69-3.63,5.76-8.87,8.14-15.65,8.14q-72.42-.15-144.83-.05c-7.27,0-7.27,0-7.27,7.56,0,26.17.1,52.35-.14,78.52-.05,5.09,1.11,6.88,6.64,6.83,33-.29,65.92-.14,98.87-.14,9.75,0,14.55,4.51,14.93,14.3a119.61,119.61,0,0,1-.19,14.54c-.58,8-5.67,12.5-13.62,12.5-33.35,0-66.69.15-100-.14-5.57-.05-6.69,1.69-6.64,6.83q.36,41.58,0,83.17c-.05,5.09,1.26,6.5,6.4,6.45C351.08,393.39,398.19,393.92,445.3,393.24Z"/><path class="cls-1" d="M445.3,393.24c-47.11.68-94.22.15-141.33.34-5.14.05-6.45-1.36-6.4-6.45q.36-41.58,0-83.17c-.05-5.14,1.07-6.88,6.64-6.83,33.3.29,66.64.14,100,.14,7.95,0,13-4.55,13.62-12.5a119.61,119.61,0,0,0,.19-14.54c-.38-9.79-5.18-14.3-14.93-14.3-32.95,0-65.91-.15-98.87.14-5.53.05-6.69-1.74-6.64-6.83.24-26.17.1-52.35.14-78.52,0-7.56,0-7.56,7.27-7.56q72.42,0,144.83.05c6.78,0,12-2.38,15.65-8.14,2.82-4.56,2.14-9.7,2.14-14.69,0-13-5.87-18.9-18.71-18.9q-82-.08-164,0-82.59,0-165.18-.1c-6.06,0-11,1.7-14.88,6.3-4.17,4.94-3.25,10.91-3.3,16.67,0,12.85,6,18.81,18.9,18.81,43.38,0,86.81.05,130.24-.1,4.31-.05,5.53,1.07,5.53,5.48q-.38,40.71,0,81.38c0,4.94-1.41,6.15-6.21,6.11-28.06-.2-56.17-.1-84.29-.1-9.11,0-13.57,3.92-14.54,12.94a64.9,64.9,0,0,0,.15,16.24c1.16,8.28,5.62,12.16,14,12.16,27.87,0,55.78.15,83.7-.09,5.43-.1,7.27,1.06,7.22,6.88q-.51,41.29,0,82.59c.09,5.72-1.56,7-7.08,6.93-43.24-.24-86.47-.05-129.65-.19-5.58,0-10.76,1-14.06,5.42-6.11,8.24-5.19,17.84-2.23,26.66,2.57,7.76,9.69,9.6,17.55,9.55q163.65-.07,327.35,0a39.5,39.5,0,0,0,6.35-.48c6.59-1.12,10.81-4.95,12.41-11.39a48.05,48.05,0,0,0,.73-6.89C468.86,401.72,463.53,393,445.3,393.24Zm-45-13.81c7.52.24,18.08-7.56,19.88-14.64,2.23-8.63-1.8-18.13-9.5-22.2-8.39-4.41-16.77-8.87-25.26-13.09-8.67-4.26-17.74-7.56-26.22-8.24-11.1-.48-15.17,4.37-11.68,12.32,1.79,4.12,4.75,7.51,7.8,10.76,12.32,13.32,27.87,22.63,41.78,34A4.85,4.85,0,0,0,400.27,379.43ZM552.76,270.28v29.08c-2.28,3-1.26,6.59-1.6,9.93C543.89,376.62,516.31,434,466.58,480.1c-57.34,53.21-125.49,77.25-203.42,71.68-69.36-5-128-33.68-175.7-84.29C47,424.6,23.62,373.56,16.35,315.06c-.63-4.85.44-10-2.18-14.54V266.79c2.48-4.56,1.55-9.7,2.23-14.55,12.65-90.63,58.89-158.54,138-203.9,36.06-20.7,75.42-30.73,116.81-33.11h24.43c3.49.29,7,.44,10.42.78C382.87,23.76,445.83,57.3,494.16,117.5c30.05,37.47,48.18,80.31,55.3,127.81C550.72,253.65,550.24,262.18,552.76,270.28Z"/><ellipse class="cls-1" cx="283.46" cy="14.8" rx="17.27" ry="0.62"/></g><path class="cls-2" d="M284.89,121.46h164c12.87,0,18.7,5.88,18.72,18.9,0,5,.7,10.17-2.15,14.72-3.6,5.74-8.86,8.13-15.66,8.11q-72.39-.13-144.79,0c-7.3,0-7.31,0-7.31,7.57,0,26.17.12,52.33-.11,78.5-.05,5.13,1.09,6.9,6.64,6.86,32.95-.28,65.9-.15,98.85-.14,9.78,0,14.55,4.48,14.93,14.28a123.37,123.37,0,0,1-.16,14.52c-.61,8-5.67,12.52-13.63,12.53-33.34,0-66.68.15-100-.13-5.54-.05-6.65,1.7-6.6,6.84q.35,41.58,0,83.15c0,5.1,1.26,6.48,6.42,6.46,47.1-.21,94.21.34,141.3-.36,18.23-.28,23.58,8.5,22.32,23a44.83,44.83,0,0,1-.74,6.88c-1.6,6.47-5.84,10.3-12.4,11.4a38.66,38.66,0,0,1-6.36.47q-163.68,0-327.38.08c-7.83,0-15-1.83-17.53-9.55-2.94-8.84-3.87-18.43,2.22-26.67,3.29-4.45,8.49-5.44,14-5.42,43.23.12,86.45,0,129.67.2,5.53,0,7.17-1.24,7.11-7q-.48-41.28,0-82.57c.07-5.83-1.76-7-7.19-6.91-27.91.27-55.82.14-83.74.12-8.36,0-12.81-3.87-14-12.17a65.3,65.3,0,0,1-.13-16.23c1-9,5.44-12.91,14.52-12.92,28.11,0,56.22-.13,84.32.09,4.78,0,6.22-1.2,6.18-6.11q-.36-40.69,0-81.4c0-4.39-1.18-5.5-5.51-5.48-43.42.16-86.84.1-130.25.09-12.91,0-18.88-5.92-18.86-18.8,0-5.75-.92-11.72,3.28-16.66,3.91-4.6,8.8-6.32,14.88-6.3Q202.33,121.58,284.89,121.46Z"/><path class="cls-2" d="M359.19,321.25c8.45.68,17.51,4,26.21,8.27,8.5,4.18,16.85,8.65,25.22,13.07,7.72,4.07,11.76,13.58,9.54,22.2-1.82,7.09-12.39,14.86-19.87,14.65a5,5,0,0,1-3.19-1.11c-13.93-11.34-29.48-20.68-41.81-34-3-3.28-6-6.65-7.78-10.76C344,325.6,348.09,320.78,359.19,321.25Z"/></svg>